 <svg version="1.0" xmlns="http://www.w3.org/2000/svg" width="700.000000pt" height="700.000000pt" viewBox="0 0 700.000000 700.000000" preserveAspectRatio="xMidYMid meet">
<metadata>
Created by potrace 1.12, written by Peter Selinger 2001-2015
</metadata>
<g transform="translate(0.000000,700.000000) scale(0.100000,-0.100000)" fill="#000000" stroke="none">
<path d="M4289 6769 c-62 -10 -94 -38 -147 -126 -13 -21 -39 -48 -58 -61 -18
-12 -50 -32 -69 -44 -19 -13 -44 -42 -55 -64 -20 -40 -21 -57 -18 -582 3 -621
-6 -563 108 -639 46 -31 76 -61 109 -110 73 -108 45 -103 541 -103 500 0 482
-3 545 99 30 48 52 69 109 105 41 25 78 57 84 71 28 61 1 124 -61 145 -22 7
-141 10 -353 8 -305 -3 -321 -2 -354 17 -21 12 -44 39 -58 65 -22 44 -23 49
-20 372 3 312 4 328 24 354 11 15 33 37 48 48 26 20 43 21 289 24 148 1 268
-2 276 -7 11 -7 14 -43 16 -158 2 -81 3 -156 4 -165 2 -28 59 -86 91 -93 38
-8 79 12 106 52 15 23 23 54 28 117 12 164 -25 224 -152 246 l-70 12 -4 156
c-3 176 -14 209 -77 246 -31 18 -56 19 -441 20 -224 1 -422 -2 -441 -5z"></path>
<path d="M1381 5657 c-13 -6 -33 -24 -43 -38 -19 -25 -19 -80 -19 -2219 1
-2106 1 -2194 19 -2228 10 -20 34 -44 55 -55 35 -18 62 -19 468 -19 400 1 433
2 467 20 20 10 44 34 54 54 18 34 19 76 19 797 -1 823 -2 809 52 844 34 22 96
21 124 -1 13 -9 42 -46 65 -82 30 -45 61 -76 101 -103 42 -28 70 -57 101 -106
35 -53 58 -77 110 -110 52 -33 76 -56 110 -110 45 -69 63 -87 136 -131 25 -15
57 -49 82 -89 32 -48 58 -74 110 -107 52 -34 77 -59 115 -115 38 -57 61 -80
108 -108 47 -28 70 -52 106 -105 34 -53 62 -81 114 -115 53 -35 77 -60 105
-106 28 -47 52 -71 107 -107 55 -37 80 -62 112 -113 33 -51 56 -75 110 -109
53 -35 77 -58 110 -110 33 -53 56 -76 110 -110 54 -35 77 -57 106 -106 30 -49
52 -71 106 -106 55 -35 78 -58 114 -114 34 -54 59 -78 107 -109 49 -31 72 -54
102 -104 39 -65 77 -97 116 -97 36 0 77 27 94 64 15 32 16 209 14 2213 -3
2167 -3 2178 -23 2213 -42 71 -43 72 -525 72 -404 0 -432 -1 -466 -19 -21 -10
-46 -35 -56 -54 -18 -32 -19 -69 -17 -801 1 -719 0 -768 -17 -797 -25 -42 -72
-65 -116 -57 -38 7 -62 29 -98 91 -33 57 -58 83 -117 121 -37 24 -66 54 -97
102 -34 54 -57 77 -109 110 -53 32 -76 55 -111 110 -35 55 -57 77 -105 107
-48 28 -73 53 -111 109 -38 57 -63 82 -114 114 -52 32 -75 55 -109 110 -35 54
-58 77 -109 109 -50 31 -75 55 -108 107 -33 50 -58 75 -107 106 -49 32 -73 56
-107 108 -34 54 -57 77 -110 110 -52 33 -75 56 -111 111 -35 54 -59 78 -110
110 -50 32 -75 57 -112 113 -37 56 -61 80 -108 108 -46 28 -71 52 -106 106
-37 55 -61 80 -113 112 -52 32 -75 55 -109 109 -33 52 -59 78 -104 107 -46 29
-71 55 -104 107 -57 89 -104 114 -158 86z"></path>
</g>
</svg>